TITLE ""
FILE "TOEIC LR Kinnojyukugo_06.mp3" MP3
  TRACK 01 AUDIO
    TITLE "TOEIC LR Kinnojyukugo_06_01"
    INDEX 01 00:00:00
  TRACK 02 AUDIO
    TITLE "TOEIC LR Kinnojyukugo_06_02"
    INDEX 01 00:00:12
  TRACK 03 AUDIO
    TITLE "TOEIC LR Kinnojyukugo_06_03"
    INDEX 01 00:01:25
  TRACK 04 AUDIO
    TITLE "TOEIC LR Kinnojyukugo_06_04"
    INDEX 01 00:01:59
  TRACK 05 AUDIO
    TITLE "TOEIC LR Kinnojyukugo_06_05"
    INDEX 01 00:03:63
  TRACK 06 AUDIO
    TITLE "TOEIC LR Kinnojyukugo_06_06"
    INDEX 01 00:04:65
  TRACK 07 AUDIO
    TITLE "TOEIC LR Kinnojyukugo_06_07"
    INDEX 01 00:06:01
  TRACK 08 AUDIO
    TITLE "TOEIC LR Kinnojyukugo_06_08"
    INDEX 01 00:06:40
  TRACK 09 AUDIO
    TITLE "TOEIC LR Kinnojyukugo_06_09"
    INDEX 01 00:09:17
  TRACK 10 AUDIO
    TITLE "TOEIC LR Kinnojyukugo_06_10"
    INDEX 01 00:10:22
  TRACK 11 AUDIO
    TITLE "TOEIC LR Kinnojyukugo_06_11"
    INDEX 01 00:11:24
  TRACK 12 AUDIO
    TITLE "TOEIC LR Kinnojyukugo_06_12"
    INDEX 01 00:11:61
  TRACK 13 AUDIO
    TITLE "TOEIC LR Kinnojyukugo_06_13"
    INDEX 01 00:14:10
  TRACK 14 AUDIO
    TITLE "TOEIC LR Kinnojyukugo_06_14"
    INDEX 01 00:15:12
  TRACK 15 AUDIO
    TITLE "TOEIC LR Kinnojyukugo_06_15"
    INDEX 01 00:16:33
  TRACK 16 AUDIO
    TITLE "TOEIC LR Kinnojyukugo_06_16"
    INDEX 01 00:16:70
  TRACK 17 AUDIO
    TITLE "TOEIC LR Kinnojyukugo_06_17"
    INDEX 01 00:19:64
  TRACK 18 AUDIO
    TITLE "TOEIC LR Kinnojyukugo_06_18"
    INDEX 01 00:20:66
  TRACK 19 AUDIO
    TITLE "TOEIC LR Kinnojyukugo_06_19"
    INDEX 01 00:21:67
  TRACK 20 AUDIO
    TITLE "TOEIC LR Kinnojyukugo_06_20"
    INDEX 01 00:22:30
  TRACK 21 AUDIO
    TITLE "TOEIC LR Kinnojyukugo_06_21"
    INDEX 01 00:24:19
  TRACK 22 AUDIO
    TITLE "TOEIC LR Kinnojyukugo_06_22"
    INDEX 01 00:25:18
  TRACK 23 AUDIO
    TITLE "TOEIC LR Kinnojyukugo_06_23"
    INDEX 01 00:26:16
  TRACK 24 AUDIO
    TITLE "TOEIC LR Kinnojyukugo_06_24"
    INDEX 01 00:26:53
  TRACK 25 AUDIO
    TITLE "TOEIC LR Kinnojyukugo_06_25"
    INDEX 01 00:28:65
  TRACK 26 AUDIO
    TITLE "TOEIC LR Kinnojyukugo_06_26"
    INDEX 01 00:29:65
  TRACK 27 AUDIO
    TITLE "TOEIC LR Kinnojyukugo_06_27"
    INDEX 01 00:31:17
  TRACK 28 AUDIO
    TITLE "TOEIC LR Kinnojyukugo_06_28"
    INDEX 01 00:31:60
  TRACK 29 AUDIO
    TITLE "TOEIC LR Kinnojyukugo_06_29"
    INDEX 01 00:35:11
  TRACK 30 AUDIO
    TITLE "TOEIC LR Kinnojyukugo_06_30"
    INDEX 01 00:36:10
  TRACK 31 AUDIO
    TITLE "TOEIC LR Kinnojyukugo_06_31"
    INDEX 01 00:37:15
  TRACK 32 AUDIO
    TITLE "TOEIC LR Kinnojyukugo_06_32"
    INDEX 01 00:37:62
  TRACK 33 AUDIO
    TITLE "TOEIC LR Kinnojyukugo_06_33"
    INDEX 01 00:39:55
  TRACK 34 AUDIO
    TITLE "TOEIC LR Kinnojyukugo_06_34"
    INDEX 01 00:40:63
  TRACK 35 AUDIO
    TITLE "TOEIC LR Kinnojyukugo_06_35"
    INDEX 01 00:41:70
  TRACK 36 AUDIO
    TITLE "TOEIC LR Kinnojyukugo_06_36"
    INDEX 01 00:42:28
  TRACK 37 AUDIO
    TITLE "TOEIC LR Kinnojyukugo_06_37"
    INDEX 01 00:45:01
  TRACK 38 AUDIO
    TITLE "TOEIC LR Kinnojyukugo_06_38"
    INDEX 01 00:46:01
  TRACK 39 AUDIO
    TITLE "TOEIC LR Kinnojyukugo_06_39"
    INDEX 01 00:47:35
  TRACK 40 AUDIO
    TITLE "TOEIC LR Kinnojyukugo_06_40"
    INDEX 01 00:47:73
  TRACK 41 AUDIO
    TITLE "TOEIC LR Kinnojyukugo_06_41"
    INDEX 01 00:50:26
  TRACK 42 AUDIO
    TITLE "TOEIC LR Kinnojyukugo_06_42"
    INDEX 01 00:51:25
  TRACK 43 AUDIO
    TITLE "TOEIC LR Kinnojyukugo_06_43"
    INDEX 01 00:52:29
  TRACK 44 AUDIO
    TITLE "TOEIC LR Kinnojyukugo_06_44"
    INDEX 01 00:52:66
  TRACK 45 AUDIO
    TITLE "TOEIC LR Kinnojyukugo_06_45"
    INDEX 01 00:55:39
